# xmcd CD database file
#
# Track frame offsets:
#	151
#	16940
#	33959
#	57694
#	74899
#	101680
#	120243
#	140838
#	163703
#	184682
#	200917
#	217144
#	238573
#	271067
#	288866
#
# Disc length: 4088 seconds
#
# Revision: 0
# Processed by: cddbd v1.5.2PL0 Copyright (c) Steve Scherf et al.
# Submitted via: CDex 1.70beta2
#
DISCID=ea0ff60f
DTITLE=Oscar D'Leon - El Farahón de la Salsa
DYEAR=1900
DGENRE=Salsa
TTITLE0=A El
TTITLE1=Lloraras
TTITLE2=Melao de Caña
TTITLE3=Sigue tu Camino
TTITLE4=Yo Quisiera
TTITLE5=Rumba Rumbero
TTITLE6=Sientate Ahi
TTITLE7=Oye Mima
TTITLE8=Detalles
TTITLE9=Que Bueno Baila Usted
TTITLE10=Cuidate Bien
TTITLE11=Que Se Sienta
TTITLE12=Bonito y Sabroso
TTITLE13=Mujer de Arena
TTITLE14=Padre e Hijo
EXTD=
EXTT0=
EXTT1=
EXTT2=
EXTT3=
EXTT4=
EXTT5=
EXTT6=
EXTT7=
EXTT8=
EXTT9=
EXTT10=
EXTT11=
EXTT12=
EXTT13=
EXTT14=
PLAYORDER=
